<svg width="896" height="113" viewBox="0 0 896 113" fill="none" xmlns="http://www.w3.org/2000/svg">
<path d="M32.38 36.5H15.62C8.34 36.5 4 40.84 4 48.12V64.86C4 72.16 8.34 76.5 15.62 76.5H32.36C39.64 76.5 43.98 72.16 43.98 64.88V48.12C44 40.84 39.66 36.5 32.38 36.5ZM34 67H14C13.18 67 12.5 66.32 12.5 65.5C12.5 64.68 13.18 64 14 64H34C34.82 64 35.5 64.68 35.5 65.5C35.5 66.32 34.82 67 34 67ZM34 58H14C13.18 58 12.5 57.32 12.5 56.5C12.5 55.68 13.18 55 14 55H34C34.82 55 35.5 55.68 35.5 56.5C35.5 57.32 34.82 58 34 58ZM34 49H14C13.18 49 12.5 48.32 12.5 47.5C12.5 46.68 13.18 46 14 46H34C34.82 46 35.5 46.68 35.5 47.5C35.5 48.32 34.82 49 34 49Z" fill="#5D50C6"/>
<path fill-rule="evenodd" clip-rule="evenodd" d="M299.553 40.0979C298.122 41.0982 296.828 42.281 295.705 43.6124C300.295 43.1863 306.125 43.882 312.894 47.2667C320.123 50.8809 325.944 51.0031 329.995 50.2217C329.627 49.1088 329.164 48.0392 328.616 47.0224C323.979 47.5115 318.034 46.8641 311.106 43.4C306.706 41.2002 302.828 40.294 299.553 40.0979ZM325.907 43.1666C322.245 39.075 316.923 36.5 311 36.5C309.26 36.5 307.573 36.7221 305.964 37.1395C308.143 37.7341 310.458 38.604 312.894 39.8223C317.967 42.3585 322.346 43.1752 325.907 43.1666ZM330.861 54.1281C325.967 55.0945 319.209 54.896 311.106 50.8444C303.53 47.0566 297.5 47.1043 293.434 48.008C293.224 48.0546 293.019 48.1036 292.819 48.1546C292.287 49.3125 291.862 50.5301 291.557 51.7945C291.882 51.7075 292.219 51.6248 292.566 51.5476C297.5 50.4513 304.47 50.4989 312.894 54.7111C320.47 58.4989 326.5 58.4512 330.566 57.5475C330.705 57.5166 330.843 57.4846 330.978 57.4516C330.993 57.1363 331 56.819 331 56.5C331 55.6975 330.953 54.906 330.861 54.1281ZM330.325 61.6723C325.478 62.5196 318.917 62.1944 311.106 58.2888C303.53 54.501 297.5 54.5487 293.434 55.4524C292.531 55.6529 291.719 55.8972 291.003 56.1551C291.001 56.2698 291 56.3848 291 56.5C291 67.5457 299.954 76.5 311 76.5C320.257 76.5 328.045 70.2109 330.325 61.6723Z" fill="url(#paint0_linear_1156_1194)"/>
<path d="M361.736 52.108V48.484H347.456V52.108H352.688V65.5H356.48V52.108H361.736ZM369.505 53.572C369.265 53.5 368.905 53.452 368.545 53.452C367.585 53.452 366.073 53.836 365.449 55.18V53.572H361.921V65.5H365.569V60.292C365.569 57.916 366.889 57.052 368.353 57.052C368.713 57.052 369.097 57.076 369.505 57.172V53.572ZM371.091 62.212C371.091 64.108 372.603 65.836 375.219 65.836C376.803 65.836 377.955 65.164 378.579 64.156C378.579 64.972 378.675 65.404 378.699 65.5H381.987C381.963 65.38 381.843 64.588 381.843 63.652V57.82C381.843 55.372 380.427 53.212 376.563 53.212C373.059 53.212 371.475 55.468 371.331 57.172L374.499 57.82C374.571 56.932 375.267 56.068 376.539 56.068C377.691 56.068 378.291 56.668 378.291 57.364C378.291 57.772 378.075 58.084 377.427 58.18L374.619 58.612C372.651 58.9 371.091 60.1 371.091 62.212ZM376.107 63.196C375.099 63.196 374.691 62.596 374.691 61.972C374.691 61.132 375.267 60.772 376.035 60.652L378.291 60.292V60.82C378.291 62.668 377.187 63.196 376.107 63.196ZM396.321 53.572H392.481L389.937 60.988L387.177 53.572H383.217L388.113 65.5H391.785L396.321 53.572ZM401.826 65.5V48.124H398.178V65.5H401.826ZM410.518 62.5C409.15 62.5 407.83 61.516 407.83 59.524C407.83 57.508 409.15 56.572 410.518 56.572C411.91 56.572 413.206 57.508 413.206 59.524C413.206 61.54 411.91 62.5 410.518 62.5ZM410.518 53.212C406.965 53.212 404.182 55.828 404.182 59.524C404.182 63.22 406.965 65.86 410.518 65.86C414.094 65.86 416.854 63.22 416.854 59.524C416.854 55.828 414.094 53.212 410.518 53.212ZM418.362 66.172C418.698 68.308 420.882 70.42 424.314 70.42C428.778 70.42 430.698 67.444 430.698 64.012V53.572H427.218V54.844C426.882 54.22 425.85 53.356 423.906 53.356C420.642 53.356 418.362 56.044 418.362 59.188C418.362 62.5 420.738 64.996 423.906 64.996C425.634 64.996 426.666 64.3 427.098 63.652V64.204C427.098 66.364 425.97 67.252 424.146 67.252C422.778 67.252 421.818 66.412 421.578 65.26L418.362 66.172ZM424.578 61.828C423.114 61.828 422.01 60.82 422.01 59.188C422.01 57.556 423.21 56.548 424.578 56.548C425.946 56.548 427.122 57.556 427.122 59.188C427.122 60.82 426.066 61.828 424.578 61.828Z" fill="#191825"/>
<rect x="676" y="32" width="105" height="49" rx="24.5" fill="white"/>
<path d="M715.49 62V60.152H711.066V52.074H709.134V62H715.49ZM719.936 60.516C719.026 60.516 718.186 59.844 718.186 58.556C718.186 57.254 719.026 56.596 719.936 56.596C720.846 56.596 721.686 57.254 721.686 58.556C721.686 59.858 720.846 60.516 719.936 60.516ZM719.936 54.902C717.878 54.902 716.324 56.428 716.324 58.556C716.324 60.67 717.878 62.21 719.936 62.21C721.994 62.21 723.548 60.67 723.548 58.556C723.548 56.428 721.994 54.902 719.936 54.902ZM724.527 62.378C724.723 63.694 725.983 64.87 727.873 64.87C730.463 64.87 731.485 63.148 731.485 61.258V55.112H729.693V55.924C729.455 55.462 728.825 54.986 727.733 54.986C725.843 54.986 724.527 56.526 724.527 58.346C724.527 60.278 725.899 61.692 727.733 61.692C728.727 61.692 729.371 61.258 729.651 60.81V61.314C729.651 62.644 728.993 63.232 727.817 63.232C726.935 63.232 726.333 62.686 726.207 61.93L724.527 62.378ZM728.055 60.096C727.089 60.096 726.403 59.424 726.403 58.346C726.403 57.282 727.131 56.61 728.055 56.61C728.951 56.61 729.679 57.282 729.679 58.346C729.679 59.41 729.007 60.096 728.055 60.096ZM738.93 62V52.074H736.97V62H738.93ZM742.917 58.038C742.917 57.24 743.393 56.61 744.205 56.61C745.101 56.61 745.479 57.212 745.479 57.982V62H747.341V57.66C747.341 56.148 746.557 54.93 744.849 54.93C744.107 54.93 743.281 55.252 742.861 55.966V55.112H741.055V62H742.917V58.038Z" fill="#222831"/>
<rect x="781" y="32" width="115" height="49" rx="24.5" fill="#5D50C6"/>
<path d="M820.812 54.44C820.588 53.32 819.664 51.864 817.256 51.864C815.38 51.864 813.798 53.208 813.798 54.972C813.798 56.47 814.82 57.492 816.402 57.814L817.788 58.094C818.558 58.248 818.992 58.696 818.992 59.27C818.992 59.97 818.418 60.488 817.382 60.488C815.982 60.488 815.296 59.606 815.212 58.626L813.42 59.102C813.574 60.516 814.736 62.21 817.368 62.21C819.678 62.21 820.952 60.67 820.952 59.144C820.952 57.744 819.986 56.568 818.18 56.218L816.794 55.952C816.066 55.812 815.716 55.378 815.716 54.832C815.716 54.174 816.332 53.572 817.27 53.572C818.53 53.572 818.978 54.426 819.076 54.972L820.812 54.44ZM824.278 62V55.112H822.416V62H824.278ZM822.192 52.858C822.192 53.474 822.71 53.992 823.34 53.992C823.984 53.992 824.488 53.474 824.488 52.858C824.488 52.214 823.984 51.696 823.34 51.696C822.71 51.696 822.192 52.214 822.192 52.858ZM825.781 62.378C825.977 63.694 827.237 64.87 829.127 64.87C831.717 64.87 832.739 63.148 832.739 61.258V55.112H830.947V55.924C830.709 55.462 830.079 54.986 828.987 54.986C827.097 54.986 825.781 56.526 825.781 58.346C825.781 60.278 827.153 61.692 828.987 61.692C829.981 61.692 830.625 61.258 830.905 60.81V61.314C830.905 62.644 830.247 63.232 829.071 63.232C828.189 63.232 827.587 62.686 827.461 61.93L825.781 62.378ZM829.309 60.096C828.343 60.096 827.657 59.424 827.657 58.346C827.657 57.282 828.385 56.61 829.309 56.61C830.205 56.61 830.933 57.282 830.933 58.346C830.933 59.41 830.261 60.096 829.309 60.096ZM836.487 58.038C836.487 57.24 836.963 56.61 837.775 56.61C838.671 56.61 839.049 57.212 839.049 57.982V62H840.911V57.66C840.911 56.148 840.127 54.93 838.419 54.93C837.677 54.93 836.851 55.252 836.431 55.966V55.112H834.625V62H836.487V58.038ZM850.11 62.224C852.238 62.224 853.932 60.922 853.932 58.486V52.074H852V58.346C852 59.648 851.286 60.334 850.11 60.334C848.962 60.334 848.234 59.648 848.234 58.346V52.074H846.302V58.486C846.302 60.922 847.996 62.224 850.11 62.224ZM857.76 64.66V61.328C858.096 61.79 858.796 62.168 859.748 62.168C861.694 62.168 862.996 60.628 862.996 58.542C862.996 56.498 861.834 54.958 859.818 54.958C858.782 54.958 858.012 55.42 857.704 55.952V55.112H855.898V64.66H857.76ZM861.162 58.556C861.162 59.788 860.406 60.502 859.454 60.502C858.502 60.502 857.732 59.774 857.732 58.556C857.732 57.338 858.502 56.624 859.454 56.624C860.406 56.624 861.162 57.338 861.162 58.556Z" fill="#EEEEEE"/>
<defs>
<linearGradient id="paint0_linear_1156_1194" x1="327" y1="79.7" x2="287.267" y2="72.0931" gradientUnits="userSpaceOnUse">
<stop stop-color="#5D50C6"/>
<stop offset="1" stop-color="#F85E9F"/>
</linearGradient>
</defs>
</svg>
